solid Pedalera4
facet normal 9.298117831235686e-16 0.0 -1.0
  outer loop
    vertex -24.046721623614093 2.6999999999999384 -0.5634782203832047
    vertex -22.046721623614083 -1.3000000000000596 -0.5634782203832026
    vertex -24.046721623614086 -1.3000000000000596 -0.5634782203832047
  endloop
endfacet
facet normal 9.298117831235686e-16 0.0 -1.0
  outer loop
    vertex -22.046721623614083 -1.3000000000000596 -0.5634782203832026
    vertex -24.046721623614093 2.6999999999999384 -0.5634782203832047
    vertex -14.546721623614086 -1.3000000000000596 -0.5634782203831955
  endloop
endfacet
facet normal 9.298117831235686e-16 0.0 -1.0
  outer loop
    vertex -14.546721623614086 -1.3000000000000596 -0.5634782203831955
    vertex -24.046721623614093 2.6999999999999384 -0.5634782203832047
    vertex -14.546721623614086 45.19999999999993 -0.5634782203831955
  endloop
endfacet
facet normal 9.298117831235686e-16 0.0 -1.0
  outer loop
    vertex -64.54672162361409 118.69999999999995 -0.5634782203832421
    vertex -35.04672162361409 -1.3000000000000596 -0.5634782203832146
    vertex -44.5467216236141 -1.3000000000000596 -0.5634782203832237
  endloop
endfacet
facet normal 9.298117831235686e-16 0.0 -1.0
  outer loop
    vertex -35.04672162361409 -1.3000000000000596 -0.5634782203832146
    vertex -64.54672162361409 118.69999999999995 -0.5634782203832421
    vertex -35.04672162361409 2.6999999999999384 -0.5634782203832146
  endloop
endfacet
facet normal 9.298117831235686e-16 0.0 -1.0
  outer loop
    vertex -35.04672162361409 2.6999999999999384 -0.5634782203832146
    vertex -64.54672162361409 118.69999999999995 -0.5634782203832421
    vertex -24.046721623614093 2.6999999999999384 -0.5634782203832047
  endloop
endfacet
facet normal 9.298117831235686e-16 0.0 -1.0
  outer loop
    vertex -24.046721623614093 2.6999999999999384 -0.5634782203832047
    vertex -64.54672162361409 118.69999999999995 -0.5634782203832421
    vertex -14.546721623614086 45.19999999999993 -0.5634782203831955
  endloop
endfacet
facet normal 9.298117831235686e-16 0.0 -1.0
  outer loop
    vertex -14.546721623614086 45.19999999999993 -0.5634782203831955
    vertex -64.54672162361409 118.69999999999995 -0.5634782203832421
    vertex -10.546721623614088 45.19999999999993 -0.5634782203831921
  endloop
endfacet
facet normal 9.298117831235686e-16 0.0 -1.0
  outer loop
    vertex -10.546721623614088 45.19999999999993 -0.5634782203831921
    vertex -64.54672162361409 118.69999999999995 -0.5634782203832421
    vertex -14.546721623614086 72.19999999999992 -0.5634782203831955
  endloop
endfacet
facet normal 9.298117831235686e-16 0.0 -1.0
  outer loop
    vertex -14.546721623614086 72.19999999999992 -0.5634782203831955
    vertex -64.54672162361409 118.69999999999995 -0.5634782203832421
    vertex -47.54672162361409 114.69999999999995 -0.5634782203832266
  endloop
endfacet
facet normal 9.298117831235686e-16 0.0 -1.0
  outer loop
    vertex -47.54672162361409 114.69999999999995 -0.5634782203832266
    vertex -64.54672162361409 118.69999999999995 -0.5634782203832421
    vertex -47.54672162361409 118.69999999999995 -0.5634782203832266
  endloop
endfacet
facet normal 9.298117831235686e-16 0.0 -1.0
  outer loop
    vertex -14.546721623614086 72.19999999999992 -0.5634782203831955
    vertex -31.546721623614083 114.69999999999995 -0.563478220383211
    vertex -14.546721623614086 118.69999999999995 -0.5634782203831955
  endloop
endfacet
facet normal 9.298117831235686e-16 0.0 -1.0
  outer loop
    vertex -31.546721623614083 114.69999999999995 -0.563478220383211
    vertex -14.546721623614086 72.19999999999992 -0.5634782203831955
    vertex -47.54672162361409 114.69999999999995 -0.5634782203832266
  endloop
endfacet
facet normal 9.298117831235686e-16 0.0 -1.0
  outer loop
    vertex -14.546721623614086 118.69999999999995 -0.5634782203831955
    vertex -31.546721623614083 114.69999999999995 -0.563478220383211
    vertex -31.546721623614083 118.69999999999995 -0.563478220383211
  endloop
endfacet
facet normal 9.298117831235686e-16 0.0 -1.0
  outer loop
    vertex -10.546721623614088 72.19999999999992 -0.5634782203831921
    vertex -10.546721623614088 45.19999999999993 -0.5634782203831921
    vertex -14.546721623614086 72.19999999999992 -0.5634782203831955
  endloop
endfacet
facet normal 0.0 -1.0 0.0
  outer loop
    vertex -10.546721623614088 45.19999999999993 -0.5634782203831921
    vertex -14.546721623614092 45.19999999999993 3.4365217796167973
    vertex -14.546721623614086 45.19999999999993 -0.5634782203831955
  endloop
endfacet
facet normal 0.0 -1.0 0.0
  outer loop
    vertex -14.546721623614092 45.19999999999993 3.4365217796167973
    vertex -10.546721623614088 45.19999999999993 -0.5634782203831921
    vertex -10.546721623614088 45.19999999999993 3.436521779616801
  endloop
endfacet
facet normal 1.0 0.0 9.298117831235686e-16
  outer loop
    vertex -10.546721623614088 45.19999999999993 -0.5634782203831921
    vertex -10.546721623614088 72.19999999999992 3.436521779616801
    vertex -10.546721623614088 45.19999999999993 3.436521779616801
  endloop
endfacet
facet normal 1.0 0.0 9.298117831235686e-16
  outer loop
    vertex -10.546721623614088 72.19999999999992 3.436521779616801
    vertex -10.546721623614088 45.19999999999993 -0.5634782203831921
    vertex -10.546721623614088 72.19999999999992 -0.5634782203831921
  endloop
endfacet
facet normal 1.0 0.0 9.298117831235686e-16
  outer loop
    vertex -14.546721623614086 -1.3000000000000596 -0.5634782203831955
    vertex -14.546721623614092 45.19999999999993 3.4365217796167973
    vertex -14.546721623614092 -1.3000000000000596 3.4365217796167973
  endloop
endfacet
facet normal 1.0 0.0 9.298117831235686e-16
  outer loop
    vertex -14.546721623614092 45.19999999999993 3.4365217796167973
    vertex -14.546721623614086 -1.3000000000000596 -0.5634782203831955
    vertex -14.546721623614086 45.19999999999993 -0.5634782203831955
  endloop
endfacet
facet normal 0.0 -1.0 0.0
  outer loop
    vertex -35.04672162361409 -1.3000000000000596 -0.5634782203832146
    vertex -44.5467216236141 -1.3000000000000596 3.436521779616769
    vertex -44.5467216236141 -1.3000000000000596 -0.5634782203832237
  endloop
endfacet
facet normal 0.0 -1.0 0.0
  outer loop
    vertex -44.5467216236141 -1.3000000000000596 3.436521779616769
    vertex -35.04672162361409 -1.3000000000000596 -0.5634782203832146
    vertex -35.0467216236141 -1.3000000000000596 3.436521779616778
  endloop
endfacet
facet normal -9.298117831235686e-16 0.0 1.0
  outer loop
    vertex -14.546721623614092 45.19999999999993 3.4365217796167973
    vertex -24.046721623614093 -1.3000000000000596 3.436521779616788
    vertex -14.546721623614092 -1.3000000000000596 3.4365217796167973
  endloop
endfacet
facet normal -9.298117831235686e-16 0.0 1.0
  outer loop
    vertex -24.046721623614093 -1.3000000000000596 3.436521779616788
    vertex -14.546721623614092 45.19999999999993 3.4365217796167973
    vertex -24.046721623614093 2.6999999999999384 3.436521779616788
  endloop
endfacet
facet normal -9.298117831235686e-16 0.0 1.0
  outer loop
    vertex -24.046721623614093 2.6999999999999384 3.436521779616788
    vertex -14.546721623614092 45.19999999999993 3.4365217796167973
    vertex -35.0467216236141 2.6999999999999384 3.436521779616778
  endloop
endfacet
facet normal -9.298117831235686e-16 0.0 1.0
  outer loop
    vertex -10.546721623614088 72.19999999999992 3.436521779616801
    vertex -14.546721623614092 45.19999999999993 3.4365217796167973
    vertex -10.546721623614088 45.19999999999993 3.436521779616801
  endloop
endfacet
facet normal -9.298117831235686e-16 0.0 1.0
  outer loop
    vertex -14.546721623614092 118.69999999999995 3.4365217796167973
    vertex -31.54672162361409 114.69999999999995 3.4365217796167817
    vertex -14.546721623614092 72.19999999999992 3.4365217796167973
  endloop
endfacet
facet normal -9.298117831235686e-16 0.0 1.0
  outer loop
    vertex -31.54672162361409 114.69999999999995 3.4365217796167817
    vertex -14.546721623614092 118.69999999999995 3.4365217796167973
    vertex -31.54672162361409 118.69999999999995 3.4365217796167817
  endloop
endfacet
facet normal -9.298117831235686e-16 0.0 1.0
  outer loop
    vertex -35.0467216236141 2.6999999999999384 3.436521779616778
    vertex -44.5467216236141 -1.3000000000000596 3.436521779616769
    vertex -35.0467216236141 -1.3000000000000596 3.436521779616778
  endloop
endfacet
facet normal -9.298117831235686e-16 0.0 1.0
  outer loop
    vertex -44.5467216236141 -1.3000000000000596 3.436521779616769
    vertex -35.0467216236141 2.6999999999999384 3.436521779616778
    vertex -64.54672162361409 118.69999999999995 3.4365217796167506
  endloop
endfacet
facet normal -9.298117831235686e-16 0.0 1.0
  outer loop
    vertex -64.54672162361409 118.69999999999995 3.4365217796167506
    vertex -35.0467216236141 2.6999999999999384 3.436521779616778
    vertex -14.546721623614092 45.19999999999993 3.4365217796167973
  endloop
endfacet
facet normal -9.298117831235686e-16 0.0 1.0
  outer loop
    vertex -64.54672162361409 118.69999999999995 3.4365217796167506
    vertex -14.546721623614092 45.19999999999993 3.4365217796167973
    vertex -14.546721623614092 72.19999999999992 3.4365217796167973
  endloop
endfacet
facet normal -9.298117831235686e-16 0.0 1.0
  outer loop
    vertex -14.546721623614092 72.19999999999992 3.4365217796167973
    vertex -14.546721623614092 45.19999999999993 3.4365217796167973
    vertex -10.546721623614088 72.19999999999992 3.436521779616801
  endloop
endfacet
facet normal -9.298117831235686e-16 0.0 1.0
  outer loop
    vertex -64.54672162361409 118.69999999999995 3.4365217796167506
    vertex -14.546721623614092 72.19999999999992 3.4365217796167973
    vertex -47.54672162361409 114.69999999999995 3.436521779616766
  endloop
endfacet
facet normal -9.298117831235686e-16 0.0 1.0
  outer loop
    vertex -47.54672162361409 114.69999999999995 3.436521779616766
    vertex -14.546721623614092 72.19999999999992 3.4365217796167973
    vertex -31.54672162361409 114.69999999999995 3.4365217796167817
  endloop
endfacet
facet normal -9.298117831235686e-16 0.0 1.0
  outer loop
    vertex -64.54672162361409 118.69999999999995 3.4365217796167506
    vertex -47.54672162361409 114.69999999999995 3.436521779616766
    vertex -47.54672162361409 118.69999999999995 3.436521779616766
  endloop
endfacet
facet normal 0.0 1.0 0.0
  outer loop
    vertex -10.546721623614088 72.19999999999992 3.436521779616801
    vertex -14.546721623614086 72.19999999999992 -0.5634782203831955
    vertex -14.546721623614092 72.19999999999992 3.4365217796167973
  endloop
endfacet
facet normal 0.0 1.0 0.0
  outer loop
    vertex -14.546721623614086 72.19999999999992 -0.5634782203831955
    vertex -10.546721623614088 72.19999999999992 3.436521779616801
    vertex -10.546721623614088 72.19999999999992 -0.5634782203831921
  endloop
endfacet
facet normal -0.9863939238321439 -0.1643989873053573 -1.8119627425971286e-16
  outer loop
    vertex -64.54672162361409 118.69999999999995 -0.5634782203832421
    vertex -44.5467216236141 -1.3000000000000596 3.436521779616769
    vertex -64.54672162361409 118.69999999999995 3.4365217796167506
  endloop
endfacet
facet normal -0.9863939238321439 -0.1643989873053573 -1.8119627425971286e-16
  outer loop
    vertex -44.5467216236141 -1.3000000000000596 3.436521779616769
    vertex -64.54672162361409 118.69999999999995 -0.5634782203832421
    vertex -44.5467216236141 -1.3000000000000596 -0.5634782203832237
  endloop
endfacet
facet normal 1.0 0.0 9.298117831235686e-16
  outer loop
    vertex -14.546721623614086 72.19999999999992 -0.5634782203831955
    vertex -14.546721623614092 118.69999999999995 3.4365217796167973
    vertex -14.546721623614092 72.19999999999992 3.4365217796167973
  endloop
endfacet
facet normal 1.0 0.0 9.298117831235686e-16
  outer loop
    vertex -14.546721623614092 118.69999999999995 3.4365217796167973
    vertex -14.546721623614086 72.19999999999992 -0.5634782203831955
    vertex -14.546721623614086 118.69999999999995 -0.5634782203831955
  endloop
endfacet
facet normal 0.0 -1.0 0.0
  outer loop
    vertex -22.046721623614083 -1.3000000000000596 -0.5634782203832026
    vertex -24.046721623614093 -1.3000000000000596 3.436521779616788
    vertex -24.046721623614086 -1.3000000000000596 -0.5634782203832047
  endloop
endfacet
facet normal 0.0 -1.0 0.0
  outer loop
    vertex -24.046721623614093 -1.3000000000000596 3.436521779616788
    vertex -22.046721623614083 -1.3000000000000596 -0.5634782203832026
    vertex -14.546721623614092 -1.3000000000000596 3.4365217796167973
  endloop
endfacet
facet normal 0.0 -1.0 0.0
  outer loop
    vertex -14.546721623614092 -1.3000000000000596 3.4365217796167973
    vertex -22.046721623614083 -1.3000000000000596 -0.5634782203832026
    vertex -14.546721623614086 -1.3000000000000596 -0.5634782203831955
  endloop
endfacet
facet normal -1.0 -7.049916206369744e-16 -2.2482016248659286e-16
  outer loop
    vertex -24.046721623614093 2.6999999999999384 -0.5634782203832047
    vertex -24.046721623614093 -1.3000000000000596 3.436521779616788
    vertex -24.046721623614093 2.6999999999999384 3.436521779616788
  endloop
endfacet
facet normal -1.0 -7.049916206369744e-16 -2.2482016248659286e-16
  outer loop
    vertex -24.046721623614093 -1.3000000000000596 3.436521779616788
    vertex -24.046721623614093 2.6999999999999384 -0.5634782203832047
    vertex -24.046721623614086 -1.3000000000000596 -0.5634782203832047
  endloop
endfacet
facet normal 1.0 0.0 9.298117831235686e-16
  outer loop
    vertex -35.04672162361409 -1.3000000000000596 -0.5634782203832146
    vertex -35.0467216236141 2.6999999999999384 3.436521779616778
    vertex -35.0467216236141 -1.3000000000000596 3.436521779616778
  endloop
endfacet
facet normal 1.0 0.0 9.298117831235686e-16
  outer loop
    vertex -35.0467216236141 2.6999999999999384 3.436521779616778
    vertex -35.04672162361409 -1.3000000000000596 -0.5634782203832146
    vertex -35.04672162361409 2.6999999999999384 -0.5634782203832146
  endloop
endfacet
facet normal 0.0 -1.0 0.0
  outer loop
    vertex -24.046721623614093 2.6999999999999384 -0.5634782203832047
    vertex -35.0467216236141 2.6999999999999384 3.436521779616778
    vertex -35.04672162361409 2.6999999999999384 -0.5634782203832146
  endloop
endfacet
facet normal 0.0 -1.0 0.0
  outer loop
    vertex -35.0467216236141 2.6999999999999384 3.436521779616778
    vertex -24.046721623614093 2.6999999999999384 -0.5634782203832047
    vertex -24.046721623614093 2.6999999999999384 3.436521779616788
  endloop
endfacet
facet normal 0.0 1.0 0.0
  outer loop
    vertex -14.546721623614092 118.69999999999995 3.4365217796167973
    vertex -31.546721623614083 118.69999999999995 -0.563478220383211
    vertex -31.54672162361409 118.69999999999995 3.4365217796167817
  endloop
endfacet
facet normal 0.0 1.0 0.0
  outer loop
    vertex -31.546721623614083 118.69999999999995 -0.563478220383211
    vertex -14.546721623614092 118.69999999999995 3.4365217796167973
    vertex -14.546721623614086 118.69999999999995 -0.5634782203831955
  endloop
endfacet
facet normal -1.0 0.0 -9.298117831235686e-16
  outer loop
    vertex -31.546721623614083 118.69999999999995 -0.563478220383211
    vertex -31.54672162361409 114.69999999999995 3.4365217796167817
    vertex -31.54672162361409 118.69999999999995 3.4365217796167817
  endloop
endfacet
facet normal -1.0 0.0 -9.298117831235686e-16
  outer loop
    vertex -31.54672162361409 114.69999999999995 3.4365217796167817
    vertex -31.546721623614083 118.69999999999995 -0.563478220383211
    vertex -31.546721623614083 114.69999999999995 -0.563478220383211
  endloop
endfacet
facet normal 0.0 1.0 0.0
  outer loop
    vertex -47.54672162361409 118.69999999999995 3.436521779616766
    vertex -64.54672162361409 118.69999999999995 -0.5634782203832421
    vertex -64.54672162361409 118.69999999999995 3.4365217796167506
  endloop
endfacet
facet normal 0.0 1.0 0.0
  outer loop
    vertex -64.54672162361409 118.69999999999995 -0.5634782203832421
    vertex -47.54672162361409 118.69999999999995 3.436521779616766
    vertex -47.54672162361409 118.69999999999995 -0.5634782203832266
  endloop
endfacet
facet normal 1.0 0.0 9.298117831235686e-16
  outer loop
    vertex -47.54672162361409 114.69999999999995 -0.5634782203832266
    vertex -47.54672162361409 118.69999999999995 3.436521779616766
    vertex -47.54672162361409 114.69999999999995 3.436521779616766
  endloop
endfacet
facet normal 1.0 0.0 9.298117831235686e-16
  outer loop
    vertex -47.54672162361409 118.69999999999995 3.436521779616766
    vertex -47.54672162361409 114.69999999999995 -0.5634782203832266
    vertex -47.54672162361409 118.69999999999995 -0.5634782203832266
  endloop
endfacet
facet normal 0.0 1.0 0.0
  outer loop
    vertex -31.54672162361409 114.69999999999995 3.4365217796167817
    vertex -47.54672162361409 114.69999999999995 -0.5634782203832266
    vertex -47.54672162361409 114.69999999999995 3.436521779616766
  endloop
endfacet
facet normal 0.0 1.0 0.0
  outer loop
    vertex -47.54672162361409 114.69999999999995 -0.5634782203832266
    vertex -31.54672162361409 114.69999999999995 3.4365217796167817
    vertex -31.546721623614083 114.69999999999995 -0.563478220383211
  endloop
endfacet
endsolid Pedalera4
