solid Pedalera4
facet normal -5.586445996694055e-17 -1.969393911632143e-16 1.0
  outer loop
    vertex 40.95049248681183 145.04791333394016 3.999999999999991
    vertex 69.95049248681183 149.0479133339402 3.999999999999991
    vertex 40.95049248681183 149.0479133339402 3.999999999999991
  endloop
endfacet
facet normal -5.586445996694055e-17 -1.969393911632143e-16 1.0
  outer loop
    vertex 69.95049248681183 149.0479133339402 3.999999999999991
    vertex 40.95049248681183 145.04791333394016 3.999999999999991
    vertex 69.95049248681183 145.04791333394016 3.999999999999991
  endloop
endfacet
facet normal -5.586445996694055e-17 -1.969393911632143e-16 1.0
  outer loop
    vertex 120.95049248681184 145.04791333394016 3.999999999999991
    vertex 149.9504924868118 149.0479133339402 3.999999999999991
    vertex 120.95049248681184 149.0479133339402 3.999999999999991
  endloop
endfacet
facet normal -5.586445996694055e-17 -1.969393911632143e-16 1.0
  outer loop
    vertex 149.9504924868118 149.0479133339402 3.999999999999991
    vertex 120.95049248681184 145.04791333394016 3.999999999999991
    vertex 149.9504924868118 145.04791333394016 3.999999999999991
  endloop
endfacet
facet normal -5.586445996694055e-17 -1.969393911632143e-16 1.0
  outer loop
    vertex 4.450492486811828 149.0479133339402 3.999999999999991
    vertex 186.45049248681184 166.5479133339402 3.999999999999992
    vertex 4.450492486811828 166.5479133339402 3.999999999999992
  endloop
endfacet
facet normal -5.586445996694055e-17 -1.969393911632143e-16 1.0
  outer loop
    vertex 186.45049248681184 166.5479133339402 3.999999999999992
    vertex 4.450492486811828 149.0479133339402 3.999999999999991
    vertex 186.45049248681184 149.0479133339402 3.999999999999991
  endloop
endfacet
facet normal -5.586445996694055e-17 -1.969393911632143e-16 1.0
  outer loop
    vertex 186.45049248681184 149.0479133339402 3.999999999999991
    vertex 4.450492486811828 149.0479133339402 3.999999999999991
    vertex 40.95049248681183 149.0479133339402 3.999999999999991
  endloop
endfacet
facet normal -5.586445996694055e-17 -1.969393911632143e-16 1.0
  outer loop
    vertex 186.45049248681184 149.0479133339402 3.999999999999991
    vertex 40.95049248681183 149.0479133339402 3.999999999999991
    vertex 69.95049248681183 149.0479133339402 3.999999999999991
  endloop
endfacet
facet normal -5.586445996694055e-17 -1.969393911632143e-16 1.0
  outer loop
    vertex 186.45049248681184 149.0479133339402 3.999999999999991
    vertex 69.95049248681183 149.0479133339402 3.999999999999991
    vertex 120.95049248681184 149.0479133339402 3.999999999999991
  endloop
endfacet
facet normal -5.586445996694055e-17 -1.969393911632143e-16 1.0
  outer loop
    vertex 186.45049248681184 149.0479133339402 3.999999999999991
    vertex 120.95049248681184 149.0479133339402 3.999999999999991
    vertex 149.9504924868118 149.0479133339402 3.999999999999991
  endloop
endfacet
facet normal -5.586445996694055e-17 -1.969393911632143e-16 1.0
  outer loop
    vertex 0.4504924868118293 166.5479133339402 3.999999999999992
    vertex 4.450492486811828 181.5479133339402 3.999999999999992
    vertex 0.4504924868118293 181.5479133339402 3.999999999999992
  endloop
endfacet
facet normal -5.586445996694055e-17 -1.969393911632143e-16 1.0
  outer loop
    vertex 4.450492486811828 181.5479133339402 3.999999999999992
    vertex 0.4504924868118293 166.5479133339402 3.999999999999992
    vertex 190.45049248681184 181.54791333394016 3.999999999999992
  endloop
endfacet
facet normal -5.586445996694055e-17 -1.969393911632143e-16 1.0
  outer loop
    vertex 190.45049248681184 181.54791333394016 3.999999999999992
    vertex 0.4504924868118293 166.5479133339402 3.999999999999992
    vertex 4.450492486811828 166.5479133339402 3.999999999999992
  endloop
endfacet
facet normal -5.586445996694055e-17 -1.969393911632143e-16 1.0
  outer loop
    vertex 190.45049248681184 181.54791333394016 3.999999999999992
    vertex 4.450492486811828 166.5479133339402 3.999999999999992
    vertex 190.45049248681184 166.5479133339402 3.999999999999992
  endloop
endfacet
facet normal -5.586445996694055e-17 -1.969393911632143e-16 1.0
  outer loop
    vertex 190.45049248681184 166.5479133339402 3.999999999999992
    vertex 4.450492486811828 166.5479133339402 3.999999999999992
    vertex 186.45049248681184 166.5479133339402 3.999999999999992
  endloop
endfacet
facet normal -5.586445996694055e-17 -1.969393911632143e-16 1.0
  outer loop
    vertex 4.450492486811828 198.3812466672735 3.9999999999999925
    vertex 186.4504924868121 199.0479133339402 3.9999999999999925
    vertex 4.450492486811828 199.0479133339402 3.9999999999999925
  endloop
endfacet
facet normal -5.586445996694055e-17 -1.969393911632143e-16 1.0
  outer loop
    vertex 186.4504924868121 199.0479133339402 3.9999999999999925
    vertex 4.450492486811828 198.3812466672735 3.9999999999999925
    vertex 186.45049248681198 181.5479133339402 4.0000000000000595
  endloop
endfacet
facet normal -5.586445996694055e-17 -1.969393911632143e-16 1.0
  outer loop
    vertex 186.45049248681198 181.5479133339402 4.0000000000000595
    vertex 4.450492486811828 198.3812466672735 3.9999999999999925
    vertex 4.450492486811828 181.5479133339402 3.999999999999992
  endloop
endfacet
facet normal -5.586445996694055e-17 -1.969393911632143e-16 1.0
  outer loop
    vertex 186.45049248681198 181.5479133339402 4.0000000000000595
    vertex 4.450492486811828 181.5479133339402 3.999999999999992
    vertex 190.45049248681184 181.54791333394016 3.999999999999992
  endloop
endfacet
facet normal 0.0 -1.0 -2.7755575615628907e-17
  outer loop
    vertex 186.45049248681184 149.0479133339402 -1.3877787807814356e-15
    vertex 149.9504924868118 149.0479133339402 3.999999999999991
    vertex 149.9504924868118 149.0479133339402 -1.3877787807814356e-15
  endloop
endfacet
facet normal 0.0 -1.0 -2.7755575615628907e-17
  outer loop
    vertex 149.9504924868118 149.0479133339402 3.999999999999991
    vertex 186.45049248681184 149.0479133339402 -1.3877787807814356e-15
    vertex 186.45049248681184 149.0479133339402 3.999999999999991
  endloop
endfacet
facet normal -8.887385809935613e-20 0.9863939238321436 -0.1643989873053582
  outer loop
    vertex 186.4504924868121 199.0479133339402 3.9999999999999925
    vertex 4.450492486811828 198.3812466672735 -2.2578235577460255e-14
    vertex 4.450492486811828 199.0479133339402 3.9999999999999925
  endloop
endfacet
facet normal -8.887385809935613e-20 0.9863939238321436 -0.1643989873053582
  outer loop
    vertex 4.450492486811828 198.3812466672735 -2.2578235577460255e-14
    vertex 186.4504924868121 199.0479133339402 3.9999999999999925
    vertex 186.45049248681184 198.3812466672735 -2.2578235577460255e-14
  endloop
endfacet
facet normal 0.0 -1.0 -2.7755575615628907e-17
  outer loop
    vertex 40.95049248681183 149.0479133339402 -1.3877787807814356e-15
    vertex 4.450492486811828 149.0479133339402 3.999999999999991
    vertex 4.450492486811828 149.0479133339402 -1.3877787807814356e-15
  endloop
endfacet
facet normal 0.0 -1.0 -2.7755575615628907e-17
  outer loop
    vertex 4.450492486811828 149.0479133339402 3.999999999999991
    vertex 40.95049248681183 149.0479133339402 -1.3877787807814356e-15
    vertex 40.95049248681183 149.0479133339402 3.999999999999991
  endloop
endfacet
facet normal 1.0 0.0 0.0
  outer loop
    vertex 149.9504924868118 149.0479133339402 3.999999999999991
    vertex 149.9504924868118 145.04791333394016 -1.498801083243951e-15
    vertex 149.9504924868118 149.0479133339402 -1.3877787807814356e-15
  endloop
endfacet
facet normal 1.0 0.0 0.0
  outer loop
    vertex 149.9504924868118 145.04791333394016 -1.498801083243951e-15
    vertex 149.9504924868118 149.0479133339402 3.999999999999991
    vertex 149.9504924868118 145.04791333394016 3.999999999999991
  endloop
endfacet
facet normal 0.0 -1.0 -2.7755575615628907e-17
  outer loop
    vertex 149.9504924868118 145.04791333394016 -1.498801083243951e-15
    vertex 120.95049248681184 145.04791333394016 3.999999999999991
    vertex 120.95049248681184 145.04791333394016 -1.498801083243951e-15
  endloop
endfacet
facet normal 0.0 -1.0 -2.7755575615628907e-17
  outer loop
    vertex 120.95049248681184 145.04791333394016 3.999999999999991
    vertex 149.9504924868118 145.04791333394016 -1.498801083243951e-15
    vertex 149.9504924868118 145.04791333394016 3.999999999999991
  endloop
endfacet
facet normal -1.0 -0.0 0.0
  outer loop
    vertex 40.95049248681183 145.04791333394016 3.999999999999991
    vertex 40.95049248681183 149.0479133339402 -1.3877787807814356e-15
    vertex 40.95049248681183 145.04791333394016 -1.498801083243951e-15
  endloop
endfacet
facet normal -1.0 -0.0 0.0
  outer loop
    vertex 40.95049248681183 149.0479133339402 -1.3877787807814356e-15
    vertex 40.95049248681183 145.04791333394016 3.999999999999991
    vertex 40.95049248681183 149.0479133339402 3.999999999999991
  endloop
endfacet
facet normal -1.0 0.0 0.0
  outer loop
    vertex 120.95049248681184 145.04791333394016 3.999999999999991
    vertex 120.95049248681184 149.0479133339402 -1.3877787807814356e-15
    vertex 120.95049248681184 145.04791333394016 -1.498801083243951e-15
  endloop
endfacet
facet normal -1.0 0.0 0.0
  outer loop
    vertex 120.95049248681184 149.0479133339402 -1.3877787807814356e-15
    vertex 120.95049248681184 145.04791333394016 3.999999999999991
    vertex 120.95049248681184 149.0479133339402 3.999999999999991
  endloop
endfacet
facet normal 1.0 0.0 0.0
  outer loop
    vertex 69.95049248681183 149.0479133339402 3.999999999999991
    vertex 69.95049248681183 145.04791333394016 -1.498801083243951e-15
    vertex 69.95049248681183 149.0479133339402 -1.3877787807814356e-15
  endloop
endfacet
facet normal 1.0 0.0 0.0
  outer loop
    vertex 69.95049248681183 145.04791333394016 -1.498801083243951e-15
    vertex 69.95049248681183 149.0479133339402 3.999999999999991
    vertex 69.95049248681183 145.04791333394016 3.999999999999991
  endloop
endfacet
facet normal 0.0 -1.0 -2.7755575615628907e-17
  outer loop
    vertex 69.95049248681183 145.04791333394016 -1.498801083243951e-15
    vertex 40.95049248681183 145.04791333394016 3.999999999999991
    vertex 40.95049248681183 145.04791333394016 -1.498801083243951e-15
  endloop
endfacet
facet normal 0.0 -1.0 -2.7755575615628907e-17
  outer loop
    vertex 40.95049248681183 145.04791333394016 3.999999999999991
    vertex 69.95049248681183 145.04791333394016 -1.498801083243951e-15
    vertex 69.95049248681183 145.04791333394016 3.999999999999991
  endloop
endfacet
facet normal 0.0 -1.0 -2.7755575615628907e-17
  outer loop
    vertex 120.95049248681184 149.0479133339402 -1.3877787807814356e-15
    vertex 69.95049248681183 149.0479133339402 3.999999999999991
    vertex 69.95049248681183 149.0479133339402 -1.3877787807814356e-15
  endloop
endfacet
facet normal 0.0 -1.0 -2.7755575615628907e-17
  outer loop
    vertex 69.95049248681183 149.0479133339402 3.999999999999991
    vertex 120.95049248681184 149.0479133339402 -1.3877787807814356e-15
    vertex 120.95049248681184 149.0479133339402 3.999999999999991
  endloop
endfacet
facet normal 1.0 0.0 0.0
  outer loop
    vertex 186.45049248681184 166.5479133339402 3.999999999999992
    vertex 186.45049248681184 149.0479133339402 -1.3877787807814356e-15
    vertex 186.45049248681184 166.5479133339402 -9.020562075079298e-16
  endloop
endfacet
facet normal 1.0 0.0 0.0
  outer loop
    vertex 186.45049248681184 149.0479133339402 -1.3877787807814356e-15
    vertex 186.45049248681184 166.5479133339402 3.999999999999992
    vertex 186.45049248681184 149.0479133339402 3.999999999999991
  endloop
endfacet
facet normal 0.0 -1.0 -2.7755575615628907e-17
  outer loop
    vertex 190.45049248681184 166.5479133339402 -9.020562075079298e-16
    vertex 186.45049248681184 166.5479133339402 3.999999999999992
    vertex 186.45049248681184 166.5479133339402 -9.020562075079298e-16
  endloop
endfacet
facet normal 0.0 -1.0 -2.7755575615628907e-17
  outer loop
    vertex 186.45049248681184 166.5479133339402 3.999999999999992
    vertex 190.45049248681184 166.5479133339402 -9.020562075079298e-16
    vertex 190.45049248681184 166.5479133339402 3.999999999999992
  endloop
endfacet
facet normal 1.0 -4.0175156144469666e-15 -5.042460371799101e-14
  outer loop
    vertex 186.4504924868121 199.0479133339402 3.9999999999999925
    vertex 186.45049248681184 181.5479133339402 -4.857225732734957e-16
    vertex 186.45049248681184 198.3812466672735 -2.2578235577460255e-14
  endloop
endfacet
facet normal 1.0 -4.0175156144469666e-15 -5.042460371799101e-14
  outer loop
    vertex 186.45049248681184 181.5479133339402 -4.857225732734957e-16
    vertex 186.4504924868121 199.0479133339402 3.9999999999999925
    vertex 186.45049248681198 181.5479133339402 4.0000000000000595
  endloop
endfacet
facet normal 1.4099832412739633e-15 1.0 1.4377388168895325e-15
  outer loop
    vertex 186.45049248681198 181.5479133339402 4.0000000000000595
    vertex 190.45049248681184 181.5479133339402 -4.857225732734957e-16
    vertex 186.45049248681184 181.5479133339402 -4.857225732734957e-16
  endloop
endfacet
facet normal 1.4099832412739633e-15 1.0 1.4377388168895325e-15
  outer loop
    vertex 190.45049248681184 181.5479133339402 -4.857225732734957e-16
    vertex 186.45049248681198 181.5479133339402 4.0000000000000595
    vertex 190.45049248681184 181.54791333394016 3.999999999999992
  endloop
endfacet
facet normal 1.0 0.0 0.0
  outer loop
    vertex 190.45049248681184 181.54791333394016 3.999999999999992
    vertex 190.45049248681184 166.5479133339402 -9.020562075079298e-16
    vertex 190.45049248681184 181.5479133339402 -4.857225732734957e-16
  endloop
endfacet
facet normal 1.0 0.0 0.0
  outer loop
    vertex 190.45049248681184 166.5479133339402 -9.020562075079298e-16
    vertex 190.45049248681184 181.54791333394016 3.999999999999992
    vertex 190.45049248681184 166.5479133339402 3.999999999999992
  endloop
endfacet
facet normal -1.0 -0.0 0.0
  outer loop
    vertex 4.450492486811828 149.0479133339402 3.999999999999991
    vertex 4.450492486811828 166.5479133339402 -9.020562075079298e-16
    vertex 4.450492486811828 149.0479133339402 -1.3877787807814356e-15
  endloop
endfacet
facet normal -1.0 -0.0 0.0
  outer loop
    vertex 4.450492486811828 166.5479133339402 -9.020562075079298e-16
    vertex 4.450492486811828 149.0479133339402 3.999999999999991
    vertex 4.450492486811828 166.5479133339402 3.999999999999992
  endloop
endfacet
facet normal 0.0 -1.0 -2.7755575615628907e-17
  outer loop
    vertex 4.450492486811828 166.5479133339402 -9.020562075079298e-16
    vertex 0.4504924868118293 166.5479133339402 3.999999999999992
    vertex 0.4504924868118293 166.5479133339402 -9.020562075079298e-16
  endloop
endfacet
facet normal 0.0 -1.0 -2.7755575615628907e-17
  outer loop
    vertex 0.4504924868118293 166.5479133339402 3.999999999999992
    vertex 4.450492486811828 166.5479133339402 -9.020562075079298e-16
    vertex 4.450492486811828 166.5479133339402 3.999999999999992
  endloop
endfacet
facet normal -1.0 -0.0 0.0
  outer loop
    vertex 0.4504924868118293 166.5479133339402 3.999999999999992
    vertex 0.4504924868118293 181.5479133339402 -4.857225732734957e-16
    vertex 0.4504924868118293 166.5479133339402 -9.020562075079298e-16
  endloop
endfacet
facet normal -1.0 -0.0 0.0
  outer loop
    vertex 0.4504924868118293 181.5479133339402 -4.857225732734957e-16
    vertex 0.4504924868118293 166.5479133339402 3.999999999999992
    vertex 0.4504924868118293 181.5479133339402 3.999999999999992
  endloop
endfacet
facet normal -1.0 -0.0 0.0
  outer loop
    vertex 4.450492486811828 181.5479133339402 -4.857225732734957e-16
    vertex 4.450492486811828 199.0479133339402 3.9999999999999925
    vertex 4.450492486811828 198.3812466672735 -2.2578235577460255e-14
  endloop
endfacet
facet normal -1.0 -0.0 0.0
  outer loop
    vertex 4.450492486811828 199.0479133339402 3.9999999999999925
    vertex 4.450492486811828 181.5479133339402 -4.857225732734957e-16
    vertex 4.450492486811828 181.5479133339402 3.999999999999992
  endloop
endfacet
facet normal -1.0 -0.0 0.0
  outer loop
    vertex 4.450492486811828 199.0479133339402 3.9999999999999925
    vertex 4.450492486811828 181.5479133339402 3.999999999999992
    vertex 4.450492486811828 198.3812466672735 3.9999999999999925
  endloop
endfacet
facet normal 0.0 1.0 2.7755575615628907e-17
  outer loop
    vertex 4.450492486811828 181.5479133339402 3.999999999999992
    vertex 0.4504924868118293 181.5479133339402 -4.857225732734957e-16
    vertex 0.4504924868118293 181.5479133339402 3.999999999999992
  endloop
endfacet
facet normal 0.0 1.0 2.7755575615628907e-17
  outer loop
    vertex 0.4504924868118293 181.5479133339402 -4.857225732734957e-16
    vertex 4.450492486811828 181.5479133339402 3.999999999999992
    vertex 4.450492486811828 181.5479133339402 -4.857225732734957e-16
  endloop
endfacet
facet normal 2.003878205441226e-32 -2.2092473967868446e-16 -1.0
  outer loop
    vertex 186.45049248681184 181.5479133339402 -4.857225732734957e-16
    vertex 4.450492486811828 198.3812466672735 -2.2578235577460255e-14
    vertex 186.45049248681184 198.3812466672735 -2.2578235577460255e-14
  endloop
endfacet
facet normal 2.003878205441226e-32 -2.2092473967868446e-16 -1.0
  outer loop
    vertex 4.450492486811828 198.3812466672735 -2.2578235577460255e-14
    vertex 186.45049248681184 181.5479133339402 -4.857225732734957e-16
    vertex 4.450492486811828 181.5479133339402 -4.857225732734957e-16
  endloop
endfacet
facet normal 2.003878205441226e-32 -2.2092473967868446e-16 -1.0
  outer loop
    vertex 149.9504924868118 145.04791333394016 -1.498801083243951e-15
    vertex 120.95049248681184 149.0479133339402 -1.3877787807814356e-15
    vertex 149.9504924868118 149.0479133339402 -1.3877787807814356e-15
  endloop
endfacet
facet normal 2.003878205441226e-32 -2.2092473967868446e-16 -1.0
  outer loop
    vertex 120.95049248681184 149.0479133339402 -1.3877787807814356e-15
    vertex 149.9504924868118 145.04791333394016 -1.498801083243951e-15
    vertex 120.95049248681184 145.04791333394016 -1.498801083243951e-15
  endloop
endfacet
facet normal 2.003878205441226e-32 -2.2092473967868446e-16 -1.0
  outer loop
    vertex 69.95049248681183 145.04791333394016 -1.498801083243951e-15
    vertex 40.95049248681183 149.0479133339402 -1.3877787807814356e-15
    vertex 69.95049248681183 149.0479133339402 -1.3877787807814356e-15
  endloop
endfacet
facet normal 2.003878205441226e-32 -2.2092473967868446e-16 -1.0
  outer loop
    vertex 40.95049248681183 149.0479133339402 -1.3877787807814356e-15
    vertex 69.95049248681183 145.04791333394016 -1.498801083243951e-15
    vertex 40.95049248681183 145.04791333394016 -1.498801083243951e-15
  endloop
endfacet
facet normal 2.003878205441226e-32 -2.2092473967868446e-16 -1.0
  outer loop
    vertex 190.45049248681184 166.5479133339402 -9.020562075079298e-16
    vertex 186.45049248681184 181.5479133339402 -4.857225732734957e-16
    vertex 190.45049248681184 181.5479133339402 -4.857225732734957e-16
  endloop
endfacet
facet normal 2.003878205441226e-32 -2.2092473967868446e-16 -1.0
  outer loop
    vertex 186.45049248681184 181.5479133339402 -4.857225732734957e-16
    vertex 190.45049248681184 166.5479133339402 -9.020562075079298e-16
    vertex 4.450492486811828 181.5479133339402 -4.857225732734957e-16
  endloop
endfacet
facet normal 2.003878205441226e-32 -2.2092473967868446e-16 -1.0
  outer loop
    vertex 4.450492486811828 181.5479133339402 -4.857225732734957e-16
    vertex 190.45049248681184 166.5479133339402 -9.020562075079298e-16
    vertex 0.4504924868118293 181.5479133339402 -4.857225732734957e-16
  endloop
endfacet
facet normal 2.003878205441226e-32 -2.2092473967868446e-16 -1.0
  outer loop
    vertex 0.4504924868118293 181.5479133339402 -4.857225732734957e-16
    vertex 190.45049248681184 166.5479133339402 -9.020562075079298e-16
    vertex 4.450492486811828 166.5479133339402 -9.020562075079298e-16
  endloop
endfacet
facet normal 2.003878205441226e-32 -2.2092473967868446e-16 -1.0
  outer loop
    vertex 4.450492486811828 166.5479133339402 -9.020562075079298e-16
    vertex 190.45049248681184 166.5479133339402 -9.020562075079298e-16
    vertex 186.45049248681184 166.5479133339402 -9.020562075079298e-16
  endloop
endfacet
facet normal 2.003878205441226e-32 -2.2092473967868446e-16 -1.0
  outer loop
    vertex 4.450492486811828 166.5479133339402 -9.020562075079298e-16
    vertex 186.45049248681184 166.5479133339402 -9.020562075079298e-16
    vertex 4.450492486811828 149.0479133339402 -1.3877787807814356e-15
  endloop
endfacet
facet normal 2.003878205441226e-32 -2.2092473967868446e-16 -1.0
  outer loop
    vertex 4.450492486811828 149.0479133339402 -1.3877787807814356e-15
    vertex 186.45049248681184 166.5479133339402 -9.020562075079298e-16
    vertex 186.45049248681184 149.0479133339402 -1.3877787807814356e-15
  endloop
endfacet
facet normal 2.003878205441226e-32 -2.2092473967868446e-16 -1.0
  outer loop
    vertex 4.450492486811828 149.0479133339402 -1.3877787807814356e-15
    vertex 186.45049248681184 149.0479133339402 -1.3877787807814356e-15
    vertex 149.9504924868118 149.0479133339402 -1.3877787807814356e-15
  endloop
endfacet
facet normal 2.003878205441226e-32 -2.2092473967868446e-16 -1.0
  outer loop
    vertex 4.450492486811828 149.0479133339402 -1.3877787807814356e-15
    vertex 149.9504924868118 149.0479133339402 -1.3877787807814356e-15
    vertex 120.95049248681184 149.0479133339402 -1.3877787807814356e-15
  endloop
endfacet
facet normal 2.003878205441226e-32 -2.2092473967868446e-16 -1.0
  outer loop
    vertex 4.450492486811828 149.0479133339402 -1.3877787807814356e-15
    vertex 120.95049248681184 149.0479133339402 -1.3877787807814356e-15
    vertex 69.95049248681183 149.0479133339402 -1.3877787807814356e-15
  endloop
endfacet
facet normal 2.003878205441226e-32 -2.2092473967868446e-16 -1.0
  outer loop
    vertex 4.450492486811828 149.0479133339402 -1.3877787807814356e-15
    vertex 69.95049248681183 149.0479133339402 -1.3877787807814356e-15
    vertex 40.95049248681183 149.0479133339402 -1.3877787807814356e-15
  endloop
endfacet
facet normal 2.003878205441226e-32 -2.2092473967868446e-16 -1.0
  outer loop
    vertex 0.4504924868118293 166.5479133339402 -9.020562075079298e-16
    vertex 0.4504924868118293 181.5479133339402 -4.857225732734957e-16
    vertex 4.450492486811828 166.5479133339402 -9.020562075079298e-16
  endloop
endfacet
endsolid Pedalera4
