solid Pedalera4
facet normal -2.2473662702674903e-17 1.2351080928571338e-16 -1.0
  outer loop
    vertex 40.25327837638586 -14.500000000000007 -0.5634782203832421
    vertex 69.18652872868012 -18.500000000000007 -0.5634782203832421
    vertex 40.25327837638586 -18.500000000000007 -0.5634782203832392
  endloop
endfacet
facet normal -2.2473662702674903e-17 1.2351080928571338e-16 -1.0
  outer loop
    vertex 69.18652872868012 -18.500000000000007 -0.5634782203832421
    vertex 40.25327837638586 -14.500000000000007 -0.5634782203832421
    vertex 69.18652872868012 -14.500000000000007 -0.5634782203832421
  endloop
endfacet
facet normal -2.2473662702674903e-17 1.2351080928571338e-16 -1.0
  outer loop
    vertex 120.25327837638584 -14.500000000000007 -0.5634782203832421
    vertex 149.18652872868012 -18.500000000000007 -0.5634782203832421
    vertex 120.25327837638584 -18.500000000000007 -0.5634782203832392
  endloop
endfacet
facet normal -2.2473662702674903e-17 1.2351080928571338e-16 -1.0
  outer loop
    vertex 149.18652872868012 -18.500000000000007 -0.5634782203832421
    vertex 120.25327837638584 -14.500000000000007 -0.5634782203832421
    vertex 149.18652872868012 -14.500000000000007 -0.5634782203832421
  endloop
endfacet
facet normal -2.2473662702674903e-17 1.2351080928571338e-16 -1.0
  outer loop
    vertex 3.75327837638584 -18.500000000000007 -0.5634782203832365
    vertex 185.75327837638582 -28.500000000000004 -0.5634782203832464
    vertex 3.75327837638584 -28.500000000000004 -0.5634782203832435
  endloop
endfacet
facet normal -2.2473662702674903e-17 1.2351080928571338e-16 -1.0
  outer loop
    vertex 185.75327837638582 -28.500000000000004 -0.5634782203832464
    vertex 3.75327837638584 -18.500000000000007 -0.5634782203832365
    vertex 185.75327837638582 -18.500000000000007 -0.5634782203832449
  endloop
endfacet
facet normal -2.2473662702674903e-17 1.2351080928571338e-16 -1.0
  outer loop
    vertex 185.75327837638582 -18.500000000000007 -0.5634782203832449
    vertex 3.75327837638584 -18.500000000000007 -0.5634782203832365
    vertex 40.25327837638586 -18.500000000000007 -0.5634782203832392
  endloop
endfacet
facet normal -2.2473662702674903e-17 1.2351080928571338e-16 -1.0
  outer loop
    vertex 185.75327837638582 -18.500000000000007 -0.5634782203832449
    vertex 40.25327837638586 -18.500000000000007 -0.5634782203832392
    vertex 69.18652872868012 -18.500000000000007 -0.5634782203832421
  endloop
endfacet
facet normal -2.2473662702674903e-17 1.2351080928571338e-16 -1.0
  outer loop
    vertex 185.75327837638582 -18.500000000000007 -0.5634782203832449
    vertex 69.18652872868012 -18.500000000000007 -0.5634782203832421
    vertex 120.25327837638584 -18.500000000000007 -0.5634782203832392
  endloop
endfacet
facet normal -2.2473662702674903e-17 1.2351080928571338e-16 -1.0
  outer loop
    vertex 185.75327837638582 -18.500000000000007 -0.5634782203832449
    vertex 120.25327837638584 -18.500000000000007 -0.5634782203832392
    vertex 149.18652872868012 -18.500000000000007 -0.5634782203832421
  endloop
endfacet
facet normal -2.2473662702674903e-17 1.2351080928571338e-16 -1.0
  outer loop
    vertex -0.246721623614158 -28.500000000000004 -0.5634782203832491
    vertex 3.75327837638584 -38.5 -0.5634782203832428
    vertex -0.246721623614158 -38.5 -0.5634782203832485
  endloop
endfacet
facet normal -2.2473662702674903e-17 1.2351080928571338e-16 -1.0
  outer loop
    vertex 3.75327837638584 -38.5 -0.5634782203832428
    vertex -0.246721623614158 -28.500000000000004 -0.5634782203832491
    vertex 185.75327837638582 -38.5 -0.5634782203832485
  endloop
endfacet
facet normal -2.2473662702674903e-17 1.2351080928571338e-16 -1.0
  outer loop
    vertex 185.75327837638582 -38.5 -0.5634782203832485
    vertex -0.246721623614158 -28.500000000000004 -0.5634782203832491
    vertex 189.75327837638582 -38.5 -0.5634782203832456
  endloop
endfacet
facet normal -2.2473662702674903e-17 1.2351080928571338e-16 -1.0
  outer loop
    vertex 189.75327837638582 -38.5 -0.5634782203832456
    vertex -0.246721623614158 -28.500000000000004 -0.5634782203832491
    vertex 189.75327837638582 -28.500000000000004 -0.5634782203832464
  endloop
endfacet
facet normal -2.2473662702674903e-17 1.2351080928571338e-16 -1.0
  outer loop
    vertex 189.75327837638582 -28.500000000000004 -0.5634782203832464
    vertex -0.246721623614158 -28.500000000000004 -0.5634782203832491
    vertex 3.75327837638584 -28.500000000000004 -0.5634782203832435
  endloop
endfacet
facet normal -2.2473662702674903e-17 1.2351080928571338e-16 -1.0
  outer loop
    vertex 189.75327837638582 -28.500000000000004 -0.5634782203832464
    vertex 3.75327837638584 -28.500000000000004 -0.5634782203832435
    vertex 185.75327837638582 -28.500000000000004 -0.5634782203832464
  endloop
endfacet
facet normal -2.2473662702674903e-17 1.2351080928571338e-16 -1.0
  outer loop
    vertex 3.75327837638584 -38.5 -0.5634782203832428
    vertex 185.75327837638582 -49.16666666666667 -0.5634782203832506
    vertex 3.75327837638584 -49.16666666666667 -0.5634782203832336
  endloop
endfacet
facet normal -2.2473662702674903e-17 1.2351080928571338e-16 -1.0
  outer loop
    vertex 185.75327837638582 -49.16666666666667 -0.5634782203832506
    vertex 3.75327837638584 -38.5 -0.5634782203832428
    vertex 185.75327837638582 -38.5 -0.5634782203832485
  endloop
endfacet
facet normal 1.0 0.0 0.0
  outer loop
    vertex 69.18652872868012 -18.500000000000007 -0.5634782203832421
    vertex 69.18652872868012 -14.500000000000007 3.436521779616759
    vertex 69.18652872868012 -18.500000000000007 3.436521779616759
  endloop
endfacet
facet normal 1.0 0.0 0.0
  outer loop
    vertex 69.18652872868012 -14.500000000000007 3.436521779616759
    vertex 69.18652872868012 -18.500000000000007 -0.5634782203832421
    vertex 69.18652872868012 -14.500000000000007 -0.5634782203832421
  endloop
endfacet
facet normal 1.0 0.0 0.0
  outer loop
    vertex 185.75327837638582 -28.500000000000004 -0.5634782203832464
    vertex 185.75327837638582 -18.500000000000007 3.436521779616759
    vertex 185.75327837638582 -28.500000000000004 3.4365217796167604
  endloop
endfacet
facet normal 1.0 0.0 0.0
  outer loop
    vertex 185.75327837638582 -18.500000000000007 3.436521779616759
    vertex 185.75327837638582 -28.500000000000004 -0.5634782203832464
    vertex 185.75327837638582 -18.500000000000007 -0.5634782203832449
  endloop
endfacet
facet normal -1.0 0.0 0.0
  outer loop
    vertex 120.25327837638584 -14.500000000000007 -0.5634782203832421
    vertex 120.25327837638584 -18.500000000000007 3.436521779616759
    vertex 120.25327837638584 -14.500000000000007 3.436521779616759
  endloop
endfacet
facet normal -1.0 0.0 0.0
  outer loop
    vertex 120.25327837638584 -18.500000000000007 3.436521779616759
    vertex 120.25327837638584 -14.500000000000007 -0.5634782203832421
    vertex 120.25327837638584 -18.500000000000007 -0.5634782203832392
  endloop
endfacet
facet normal 0.0 1.0 -8.326672684688674e-17
  outer loop
    vertex 149.18652872868012 -14.500000000000007 3.436521779616759
    vertex 120.25327837638584 -14.500000000000007 -0.5634782203832421
    vertex 120.25327837638584 -14.500000000000007 3.436521779616759
  endloop
endfacet
facet normal 0.0 1.0 -8.326672684688674e-17
  outer loop
    vertex 120.25327837638584 -14.500000000000007 -0.5634782203832421
    vertex 149.18652872868012 -14.500000000000007 3.436521779616759
    vertex 149.18652872868012 -14.500000000000007 -0.5634782203832421
  endloop
endfacet
facet normal 0.0 1.0 -8.326672684688674e-17
  outer loop
    vertex 185.75327837638582 -18.500000000000007 3.436521779616759
    vertex 149.18652872868012 -18.500000000000007 -0.5634782203832421
    vertex 149.18652872868012 -18.500000000000007 3.436521779616759
  endloop
endfacet
facet normal 0.0 1.0 -8.326672684688674e-17
  outer loop
    vertex 149.18652872868012 -18.500000000000007 -0.5634782203832421
    vertex 185.75327837638582 -18.500000000000007 3.436521779616759
    vertex 185.75327837638582 -18.500000000000007 -0.5634782203832449
  endloop
endfacet
facet normal 1.0 0.0 0.0
  outer loop
    vertex 149.18652872868012 -18.500000000000007 -0.5634782203832421
    vertex 149.18652872868012 -14.500000000000007 3.436521779616759
    vertex 149.18652872868012 -18.500000000000007 3.436521779616759
  endloop
endfacet
facet normal 1.0 0.0 0.0
  outer loop
    vertex 149.18652872868012 -14.500000000000007 3.436521779616759
    vertex 149.18652872868012 -18.500000000000007 -0.5634782203832421
    vertex 149.18652872868012 -14.500000000000007 -0.5634782203832421
  endloop
endfacet
facet normal 0.0 1.0 -8.326672684688674e-17
  outer loop
    vertex 69.18652872868012 -14.500000000000007 3.436521779616759
    vertex 40.25327837638586 -14.500000000000007 -0.5634782203832421
    vertex 40.25327837638586 -14.500000000000007 3.436521779616759
  endloop
endfacet
facet normal 0.0 1.0 -8.326672684688674e-17
  outer loop
    vertex 40.25327837638586 -14.500000000000007 -0.5634782203832421
    vertex 69.18652872868012 -14.500000000000007 3.436521779616759
    vertex 69.18652872868012 -14.500000000000007 -0.5634782203832421
  endloop
endfacet
facet normal 0.0 8.326672684688674e-17 1.0
  outer loop
    vertex 149.18652872868012 -14.500000000000007 3.436521779616759
    vertex 120.25327837638584 -18.500000000000007 3.436521779616759
    vertex 149.18652872868012 -18.500000000000007 3.436521779616759
  endloop
endfacet
facet normal 0.0 8.326672684688674e-17 1.0
  outer loop
    vertex 120.25327837638584 -18.500000000000007 3.436521779616759
    vertex 149.18652872868012 -14.500000000000007 3.436521779616759
    vertex 120.25327837638584 -14.500000000000007 3.436521779616759
  endloop
endfacet
facet normal 0.0 8.326672684688674e-17 1.0
  outer loop
    vertex 69.18652872868012 -14.500000000000007 3.436521779616759
    vertex 40.25327837638586 -18.500000000000007 3.436521779616759
    vertex 69.18652872868012 -18.500000000000007 3.436521779616759
  endloop
endfacet
facet normal 0.0 8.326672684688674e-17 1.0
  outer loop
    vertex 40.25327837638586 -18.500000000000007 3.436521779616759
    vertex 69.18652872868012 -14.500000000000007 3.436521779616759
    vertex 40.25327837638586 -14.500000000000007 3.436521779616759
  endloop
endfacet
facet normal 0.0 8.326672684688674e-17 1.0
  outer loop
    vertex 185.75327837638582 -18.500000000000007 3.436521779616759
    vertex 3.75327837638584 -28.500000000000004 3.4365217796167604
    vertex 185.75327837638582 -28.500000000000004 3.4365217796167604
  endloop
endfacet
facet normal 0.0 8.326672684688674e-17 1.0
  outer loop
    vertex 3.75327837638584 -28.500000000000004 3.4365217796167604
    vertex 185.75327837638582 -18.500000000000007 3.436521779616759
    vertex 3.75327837638584 -18.500000000000007 3.436521779616759
  endloop
endfacet
facet normal 0.0 8.326672684688674e-17 1.0
  outer loop
    vertex 3.75327837638584 -18.500000000000007 3.436521779616759
    vertex 185.75327837638582 -18.500000000000007 3.436521779616759
    vertex 149.18652872868012 -18.500000000000007 3.436521779616759
  endloop
endfacet
facet normal 0.0 8.326672684688674e-17 1.0
  outer loop
    vertex 3.75327837638584 -18.500000000000007 3.436521779616759
    vertex 149.18652872868012 -18.500000000000007 3.436521779616759
    vertex 120.25327837638584 -18.500000000000007 3.436521779616759
  endloop
endfacet
facet normal 0.0 8.326672684688674e-17 1.0
  outer loop
    vertex 3.75327837638584 -18.500000000000007 3.436521779616759
    vertex 120.25327837638584 -18.500000000000007 3.436521779616759
    vertex 69.18652872868012 -18.500000000000007 3.436521779616759
  endloop
endfacet
facet normal 0.0 8.326672684688674e-17 1.0
  outer loop
    vertex 3.75327837638584 -18.500000000000007 3.436521779616759
    vertex 69.18652872868012 -18.500000000000007 3.436521779616759
    vertex 40.25327837638586 -18.500000000000007 3.436521779616759
  endloop
endfacet
facet normal 0.0 8.326672684688674e-17 1.0
  outer loop
    vertex 189.75327837638582 -28.500000000000004 3.4365217796167604
    vertex 185.75327837638582 -38.5 3.4365217796167613
    vertex 189.75327837638582 -38.5 3.4365217796167613
  endloop
endfacet
facet normal 0.0 8.326672684688674e-17 1.0
  outer loop
    vertex 185.75327837638582 -38.5 3.4365217796167613
    vertex 189.75327837638582 -28.500000000000004 3.4365217796167604
    vertex 3.75327837638584 -38.5 3.4365217796167613
  endloop
endfacet
facet normal 0.0 8.326672684688674e-17 1.0
  outer loop
    vertex 3.75327837638584 -38.5 3.4365217796167613
    vertex 189.75327837638582 -28.500000000000004 3.4365217796167604
    vertex -0.246721623614158 -38.5 3.4365217796167613
  endloop
endfacet
facet normal 0.0 8.326672684688674e-17 1.0
  outer loop
    vertex -0.246721623614158 -38.5 3.4365217796167613
    vertex 189.75327837638582 -28.500000000000004 3.4365217796167604
    vertex -0.246721623614158 -28.500000000000004 3.4365217796167604
  endloop
endfacet
facet normal 0.0 8.326672684688674e-17 1.0
  outer loop
    vertex -0.246721623614158 -28.500000000000004 3.4365217796167604
    vertex 189.75327837638582 -28.500000000000004 3.4365217796167604
    vertex 185.75327837638582 -28.500000000000004 3.4365217796167604
  endloop
endfacet
facet normal 0.0 8.326672684688674e-17 1.0
  outer loop
    vertex -0.246721623614158 -28.500000000000004 3.4365217796167604
    vertex 185.75327837638582 -28.500000000000004 3.4365217796167604
    vertex 3.75327837638584 -28.500000000000004 3.4365217796167604
  endloop
endfacet
facet normal 0.0 8.326672684688674e-17 1.0
  outer loop
    vertex 185.75327837638582 -38.5 3.4365217796167613
    vertex 3.75327837638584 -48.50000000000001 3.4365217796167618
    vertex 185.75327837638582 -48.50000000000001 3.4365217796167618
  endloop
endfacet
facet normal 0.0 8.326672684688674e-17 1.0
  outer loop
    vertex 3.75327837638584 -48.50000000000001 3.4365217796167618
    vertex 185.75327837638582 -38.5 3.4365217796167613
    vertex 3.75327837638584 -38.5 3.4365217796167613
  endloop
endfacet
facet normal 0.0 1.0 -8.326672684688674e-17
  outer loop
    vertex 120.25327837638584 -18.500000000000007 3.436521779616759
    vertex 69.18652872868012 -18.500000000000007 -0.5634782203832421
    vertex 69.18652872868012 -18.500000000000007 3.436521779616759
  endloop
endfacet
facet normal 0.0 1.0 -8.326672684688674e-17
  outer loop
    vertex 69.18652872868012 -18.500000000000007 -0.5634782203832421
    vertex 120.25327837638584 -18.500000000000007 3.436521779616759
    vertex 120.25327837638584 -18.500000000000007 -0.5634782203832392
  endloop
endfacet
facet normal -1.0 0.0 0.0
  outer loop
    vertex 40.25327837638586 -14.500000000000007 -0.5634782203832421
    vertex 40.25327837638586 -18.500000000000007 3.436521779616759
    vertex 40.25327837638586 -14.500000000000007 3.436521779616759
  endloop
endfacet
facet normal -1.0 0.0 0.0
  outer loop
    vertex 40.25327837638586 -18.500000000000007 3.436521779616759
    vertex 40.25327837638586 -14.500000000000007 -0.5634782203832421
    vertex 40.25327837638586 -18.500000000000007 -0.5634782203832392
  endloop
endfacet
facet normal 8.176394945142232e-18 -0.9863939238321439 0.16439898730535615
  outer loop
    vertex 185.75327837638582 -49.16666666666667 -0.5634782203832506
    vertex 3.75327837638584 -48.50000000000001 3.4365217796167618
    vertex 3.75327837638584 -49.16666666666667 -0.5634782203832336
  endloop
endfacet
facet normal 8.176394945142232e-18 -0.9863939238321439 0.16439898730535615
  outer loop
    vertex 3.75327837638584 -48.50000000000001 3.4365217796167618
    vertex 185.75327837638582 -49.16666666666667 -0.5634782203832506
    vertex 185.75327837638582 -48.50000000000001 3.4365217796167618
  endloop
endfacet
facet normal -1.0 0.0 -0.0
  outer loop
    vertex 3.75327837638584 -18.500000000000007 -0.5634782203832365
    vertex 3.75327837638584 -28.500000000000004 3.4365217796167604
    vertex 3.75327837638584 -18.500000000000007 3.436521779616759
  endloop
endfacet
facet normal -1.0 0.0 -0.0
  outer loop
    vertex 3.75327837638584 -28.500000000000004 3.4365217796167604
    vertex 3.75327837638584 -18.500000000000007 -0.5634782203832365
    vertex 3.75327837638584 -28.500000000000004 -0.5634782203832435
  endloop
endfacet
facet normal 0.0 1.0 -8.326672684688674e-17
  outer loop
    vertex 40.25327837638586 -18.500000000000007 3.436521779616759
    vertex 3.75327837638584 -18.500000000000007 -0.5634782203832365
    vertex 3.75327837638584 -18.500000000000007 3.436521779616759
  endloop
endfacet
facet normal 0.0 1.0 -8.326672684688674e-17
  outer loop
    vertex 3.75327837638584 -18.500000000000007 -0.5634782203832365
    vertex 40.25327837638586 -18.500000000000007 3.436521779616759
    vertex 40.25327837638586 -18.500000000000007 -0.5634782203832392
  endloop
endfacet
facet normal 1.0 0.0 0.0
  outer loop
    vertex 185.75327837638582 -49.16666666666667 -0.5634782203832506
    vertex 185.75327837638582 -38.5 3.4365217796167613
    vertex 185.75327837638582 -48.50000000000001 3.4365217796167618
  endloop
endfacet
facet normal 1.0 0.0 0.0
  outer loop
    vertex 185.75327837638582 -38.5 3.4365217796167613
    vertex 185.75327837638582 -49.16666666666667 -0.5634782203832506
    vertex 185.75327837638582 -38.5 -0.5634782203832485
  endloop
endfacet
facet normal 0.0 1.0 -8.326672684688674e-17
  outer loop
    vertex 189.75327837638582 -28.500000000000004 3.4365217796167604
    vertex 185.75327837638582 -28.500000000000004 -0.5634782203832464
    vertex 185.75327837638582 -28.500000000000004 3.4365217796167604
  endloop
endfacet
facet normal 0.0 1.0 -8.326672684688674e-17
  outer loop
    vertex 185.75327837638582 -28.500000000000004 -0.5634782203832464
    vertex 189.75327837638582 -28.500000000000004 3.4365217796167604
    vertex 189.75327837638582 -28.500000000000004 -0.5634782203832464
  endloop
endfacet
facet normal 1.0 0.0 0.0
  outer loop
    vertex 189.75327837638582 -38.5 -0.5634782203832456
    vertex 189.75327837638582 -28.500000000000004 3.4365217796167604
    vertex 189.75327837638582 -38.5 3.4365217796167613
  endloop
endfacet
facet normal 1.0 0.0 0.0
  outer loop
    vertex 189.75327837638582 -28.500000000000004 3.4365217796167604
    vertex 189.75327837638582 -38.5 -0.5634782203832456
    vertex 189.75327837638582 -28.500000000000004 -0.5634782203832464
  endloop
endfacet
facet normal 0.0 -1.0 8.326672684688674e-17
  outer loop
    vertex 189.75327837638582 -38.5 -0.5634782203832456
    vertex 185.75327837638582 -38.5 3.4365217796167613
    vertex 185.75327837638582 -38.5 -0.5634782203832485
  endloop
endfacet
facet normal 0.0 -1.0 8.326672684688674e-17
  outer loop
    vertex 185.75327837638582 -38.5 3.4365217796167613
    vertex 189.75327837638582 -38.5 -0.5634782203832456
    vertex 189.75327837638582 -38.5 3.4365217796167613
  endloop
endfacet
facet normal -1.0 0.0 -0.0
  outer loop
    vertex -0.246721623614158 -28.500000000000004 -0.5634782203832491
    vertex -0.246721623614158 -38.5 3.4365217796167613
    vertex -0.246721623614158 -28.500000000000004 3.4365217796167604
  endloop
endfacet
facet normal -1.0 0.0 -0.0
  outer loop
    vertex -0.246721623614158 -38.5 3.4365217796167613
    vertex -0.246721623614158 -28.500000000000004 -0.5634782203832491
    vertex -0.246721623614158 -38.5 -0.5634782203832485
  endloop
endfacet
facet normal 0.0 1.0 -8.326672684688674e-17
  outer loop
    vertex 3.75327837638584 -28.500000000000004 3.4365217796167604
    vertex -0.246721623614158 -28.500000000000004 -0.5634782203832491
    vertex -0.246721623614158 -28.500000000000004 3.4365217796167604
  endloop
endfacet
facet normal 0.0 1.0 -8.326672684688674e-17
  outer loop
    vertex -0.246721623614158 -28.500000000000004 -0.5634782203832491
    vertex 3.75327837638584 -28.500000000000004 3.4365217796167604
    vertex 3.75327837638584 -28.500000000000004 -0.5634782203832435
  endloop
endfacet
facet normal -1.0 -8.974563499067983e-32 -1.762479051592436e-16
  outer loop
    vertex 3.75327837638584 -38.5 -0.5634782203832428
    vertex 3.75327837638584 -48.50000000000001 3.4365217796167618
    vertex 3.75327837638584 -38.5 3.4365217796167613
  endloop
endfacet
facet normal -1.0 -8.974563499067983e-32 -1.762479051592436e-16
  outer loop
    vertex 3.75327837638584 -48.50000000000001 3.4365217796167618
    vertex 3.75327837638584 -38.5 -0.5634782203832428
    vertex 3.75327837638584 -49.16666666666667 -0.5634782203832336
  endloop
endfacet
facet normal 0.0 -1.0 8.326672684688674e-17
  outer loop
    vertex 3.75327837638584 -38.5 -0.5634782203832428
    vertex -0.246721623614158 -38.5 3.4365217796167613
    vertex -0.246721623614158 -38.5 -0.5634782203832485
  endloop
endfacet
facet normal 0.0 -1.0 8.326672684688674e-17
  outer loop
    vertex -0.246721623614158 -38.5 3.4365217796167613
    vertex 3.75327837638584 -38.5 -0.5634782203832428
    vertex 3.75327837638584 -38.5 3.4365217796167613
  endloop
endfacet
endsolid Pedalera4
